<?xml version="1.0" encoding="UTF-8" standalone="no"?>
<!DOCTYPE svg PUBLIC "-//W3C//DTD SVG 1.1//EN" "http://www.w3.org/Graphics/SVG/1.1/DTD/svg11.dtd">
<svg width="100%" height="100%" viewBox="0 0 1600 1600" version="1.1" xmlns="http://www.w3.org/2000/svg" xmlns:xlink="http://www.w3.org/1999/xlink" xml:space="preserve" xmlns:serif="http://www.serif.com/" style="fill-rule:evenodd;clip-rule:evenodd;stroke-linejoin:round;stroke-miterlimit:2;">
    <g transform="matrix(1,0,0,1,-1434,-4892.88)">
        <g id="Artboard7" transform="matrix(0.941176,0,0,0.941176,70.2353,235.188)">
            <rect x="1449" y="4948.8" width="1700" height="1700" style="fill:none;"/>
            <clipPath id="_clip1">
                <rect x="1449" y="4948.8" width="1700" height="1700"/>
            </clipPath>
            <g clip-path="url(#_clip1)">
                <g transform="matrix(0.493612,0,0,0.485714,1372,2644.08)">
                    <rect x="156" y="4745" width="3444" height="3500" style="fill:white;"/>
                </g>
                <g id="ooorganize--1-.svg" serif:id="ooorganize (1).svg" transform="matrix(2.125,0,0,2.125,2299,5798.8)">
                    <g transform="matrix(1,0,0,1,-400,-400)">
                        <clipPath id="_clip2">
                            <rect x="0" y="0" width="800" height="800"/>
                        </clipPath>
                        <g clip-path="url(#_clip2)">
                            <g>
                                <circle cx="0" cy="0" r="11.868" style="fill:rgb(204,204,204);"/>
                                <circle cx="200" cy="0" r="11.868" style="fill:rgb(204,204,204);"/>
                                <circle cx="400" cy="0" r="11.868" style="fill:rgb(204,204,204);"/>
                                <circle cx="600" cy="0" r="11.868" style="fill:rgb(204,204,204);"/>
                                <circle cx="800" cy="0" r="11.868" style="fill:rgb(204,204,204);"/>
                                <circle cx="0" cy="200" r="11.868" style="fill:rgb(204,204,204);"/>
                                <circle cx="200" cy="200" r="11.868" style="fill:rgb(204,204,204);"/>
                                <circle cx="400" cy="200" r="11.868" style="fill:rgb(204,204,204);"/>
                                <circle cx="600" cy="200" r="11.868" style="fill:rgb(204,204,204);"/>
                                <circle cx="800" cy="200" r="11.868" style="fill:rgb(204,204,204);"/>
                                <circle cx="0" cy="400" r="11.868" style="fill:rgb(204,204,204);"/>
                                <circle cx="200" cy="400" r="11.868" style="fill:rgb(204,204,204);"/>
                                <circle cx="400" cy="400" r="11.868" style="fill:rgb(204,204,204);"/>
                                <circle cx="600" cy="400" r="11.868" style="fill:rgb(204,204,204);"/>
                                <circle cx="800" cy="400" r="11.868" style="fill:rgb(204,204,204);"/>
                                <circle cx="0" cy="600" r="11.868" style="fill:rgb(204,204,204);"/>
                                <circle cx="200" cy="600" r="11.868" style="fill:rgb(204,204,204);"/>
                                <circle cx="400" cy="600" r="11.868" style="fill:rgb(204,204,204);"/>
                                <circle cx="600" cy="600" r="11.868" style="fill:rgb(204,204,204);"/>
                                <circle cx="800" cy="600" r="11.868" style="fill:rgb(204,204,204);"/>
                                <circle cx="0" cy="800" r="11.868" style="fill:rgb(204,204,204);"/>
                                <circle cx="200" cy="800" r="11.868" style="fill:rgb(204,204,204);"/>
                                <circle cx="400" cy="800" r="11.868" style="fill:rgb(204,204,204);"/>
                                <circle cx="600" cy="800" r="11.868" style="fill:rgb(204,204,204);"/>
                                <circle cx="800" cy="800" r="11.868" style="fill:rgb(204,204,204);"/>
                            </g>
                        </g>
                    </g>
                </g>
            </g>
        </g>
    </g>
</svg>
